<svg width="600" height="1200" xmlns="http://www.w3.org/2000/svg" version="1.1">

 <g>
  <title>Layer 1</title>
  <g id="svg_9">
   <path id="svg_1" d="m380.80298,52.68977c9.29555,-8.76285 24.42926,-4.12242 27.27526,8.21717c0.95731,4.14923 0.21793,8.43769 -1.93798,12.04556q-0.30613,0.51109 -0.95904,1.439q-3.78862,5.37809 -7.60317,10.73801c-1.09482,1.53758 -1.92587,2.97485 -3.9019,3.1971c-1.39835,0.15739 -2.89011,0.1695 -4.18901,-0.26376c-0.77658,-0.25857 -1.29199,-0.80165 -1.81086,-1.53153q-4.1769,-5.8788 -8.35726,-11.75673c-0.79041,-1.11211 -1.51424,-2.21644 -2.06597,-3.41589c-2.88924,-6.27833 -1.51251,-13.8962 3.54993,-18.66894zm18.06532,16.49833c3.86212,-5.50175 -0.32429,-13.06514 -6.94334,-12.86106c-4.04632,0.12366 -7.26937,2.96361 -7.91882,6.9494c-0.11069,0.67626 -0.07524,1.35598 -0.07524,2.04089c0,0.12366 0.05967,0.22052 0.06745,0.35024q0.0147,0.23522 0.01903,0.26203c0.31046,1.71487 1.0265,2.77595 2.05645,4.24522q2.98523,4.25819 5.96095,8.4351q0.08561,0.1202 0.17123,0q3.428,-4.81338 6.66229,-9.42181z" fill="#fdc500"/>
   <path id="svg_2" d="m253.34777,114.2459c0,2.40323 -1.77972,4.27808 -4.19852,4.27116c-1.99073,-0.00519 -3.55685,-1.25134 -4.09907,-3.18586c-0.03546,-0.12539 -0.00519,-0.30094 -0.07351,-0.44796q-0.01643,-0.03546 -0.01643,-0.07524l0,-43.57037a0.0441,0.04324 -11.2 0 1 0.02767,-0.04064q0.05967,-0.02421 0.04843,-0.1695q-0.00692,-0.0934 0.01038,-0.1669c1.02477,-4.33862 7.27802,-4.27895 8.21803,0.07524c0.01903,0.08821 -0.00173,0.243 0.06226,0.35283q0.02162,0.03632 0.02162,0.07956q0.00086,21.43884 -0.00086,42.87768z" fill="#00a082"/>
   <path id="svg_3" d="m193.61806,86.13872c3.04317,-9.00585 10.76136,-15.60847 20.26879,-16.71453c6.71331,-0.78003 13.56845,0.4419 19.2397,4.29278c1.471,0.99882 2.19568,2.10142 2.27784,3.92612q0.00432,0.10118 -0.05102,0.339c-0.03546,0.15393 0.00086,0.31738 -0.03805,0.46698q-0.54914,2.09018 -2.38594,2.92643c-1.46581,0.66761 -3.06047,0.45747 -4.34121,-0.52579q-0.34072,-0.26116 -1.45802,-0.96077c-3.46519,-2.16715 -7.59107,-3.13743 -11.68409,-2.71542c-5.11606,0.52752 -9.40884,3.49199 -11.83196,7.99579c-2.02705,3.76786 -2.72926,8.03729 -2.02359,12.29981c1.43035,8.64697 8.15231,14.14785 16.90565,13.77946q5.72832,-0.24127 10.44745,-3.44357c0.19717,-0.13404 0.31997,-0.27154 0.32083,-0.53184q0.00086,-4.21841 0,-8.42472a0.14009,0.14009 0 0 0 -0.13923,-0.14009q-4.48736,-0.01384 -9.02747,-0.00519q-0.19371,0.00086 -0.28451,-0.03546q-0.03978,-0.01557 -0.08215,-0.01557c-2.04435,0.03286 -3.72981,-1.46062 -3.7324,-3.54388q0,-0.02075 -0.02508,-0.07178q-0.01816,-0.03719 -0.00173,-0.07524c0.08994,-0.20495 0.0147,-0.47131 0.08042,-0.73507c0.3684,-1.47791 1.4831,-2.7111 3.05009,-2.86935c0.16777,-0.01643 0.30354,-0.07091 0.46439,-0.07091q7.04106,0 14.08126,0q0.04151,0 0.0761,0.02335c0.10637,0.07091 0.22398,0.02767 0.33208,0.05362c1.72005,0.4151 2.9835,1.56439 3.30866,3.35276c0.02854,0.1548 0.00432,0.42115 0.05535,0.62178q0.03805,0.14788 0.03805,0.24819q0,6.68823 0,13.37647c0,0.20668 -0.09686,0.40212 -0.05794,0.6408q0.00692,0.04324 -0.01643,0.07956c-0.07091,0.11329 -0.05189,0.2283 -0.07091,0.3191c-0.49552,2.30638 -2.296,3.52918 -4.18036,4.64821c-7.18202,4.26511 -16.11005,5.62369 -24.16637,3.13397c-12.91986,-3.9927 -18.83757,-17.29739 -15.8238,-29.9829q0.20236,-0.85354 0.47563,-1.66211z" fill="#00a082"/>
   <path id="svg_4" d="m288.22621,83.21489c5.3115,2.61683 8.91073,7.63517 9.94155,13.43268c1.06541,5.99208 -0.71604,11.95303 -4.82463,16.3764c-4.3464,4.67934 -11.02685,6.65105 -17.27058,5.77589c-9.08974,-1.27383 -15.79094,-8.32008 -16.3323,-17.56634c-0.27154,-4.63956 1.1787,-9.16065 3.96849,-12.81522c2.19914,-2.88059 5.30112,-5.00709 8.72653,-6.19185c5.17832,-1.7927 10.88589,-1.42776 15.79094,0.98845zm-18.87908,11.22662c-3.20143,6.78941 -0.09167,15.52891 7.8064,17.05785q0.79733,0.1548 1.60677,0.15826c0.20063,0.00086 0.40299,0.08994 0.63129,0.05535q0.35024,-0.05362 0.40212,-0.05448q0.91581,-0.02162 1.81172,-0.22484c4.5453,-1.02736 7.52707,-4.60497 8.30711,-9.09925c0.84835,-4.88516 -1.23145,-10.11537 -5.65741,-12.55146c-2.26227,-1.24529 -5.02958,-1.58169 -7.53745,-1.11557c-3.26369,0.60535 -5.96268,2.78979 -7.37055,5.77416z" fill="#00a082"/>
   <path id="svg_5" d="m377.96303,96.66918c2.36691,13.77254 -9.59131,24.39813 -22.94356,22.01219c-10.76914,-1.92328 -17.43316,-12.1528 -15.04636,-22.79655c2.3254,-10.36875 12.50736,-16.40234 22.79309,-14.42285c7.83321,1.50818 13.83567,7.29099 15.19683,15.20721zm-26.67251,-5.26307c-4.835,4.76496 -4.50293,13.78032 0.94002,17.96155q2.45253,1.8835 5.51905,2.21125c6.97102,0.74544 12.05594,-4.52628 12.10351,-11.23526c0.03113,-4.31008 -1.9129,-8.33565 -5.72141,-10.48896c-4.07226,-2.30119 -9.48235,-1.75897 -12.84117,1.55142z" fill="#00a082"/>
   <path id="svg_6" d="m318.98568,108.26506q0.05189,0.18939 0.12366,0.00692q4.65253,-11.83369 9.28518,-23.70457c0.74285,-1.90425 2.05127,-3.09765 4.15788,-3.14089q0.08475,-0.00173 0.26722,0.04929c0.12193,0.03373 0.26203,0.01038 0.37705,0.03113c2.58311,0.47995 3.92871,2.95756 3.08382,5.43516q-0.09426,0.275 -0.52146,1.25394c-3.88115,8.89602 -7.74932,17.7981 -11.62615,26.69586c-0.80079,1.83766 -1.97689,3.42541 -4.00654,3.90104c-0.66329,0.15566 -1.73994,0.13404 -2.41275,-0.01903c-2.0945,-0.47563 -3.14868,-2.19655 -3.94428,-4.01865q-8.72912,-19.99119 -11.8017,-27.05388c-0.59411,-1.36376 -0.76101,-2.76471 0.00346,-4.11723c1.52807,-2.69985 5.50262,-2.88319 7.19932,-0.27587q0.27154,0.41769 0.72036,1.56612q4.53838,11.60712 9.03785,23.22808q0.04324,0.11242 0.05708,0.16258z" fill="#00a082"/>
   <ellipse id="svg_7" ry="52.12" rx="53.32" transform="matrix(0.0861086, -0.00798805, 0.00798805, 0.0861086, 3.14519, 25.2605)" cy="1226.03546" cx="4402.94507" fill="#fdc500"/>
  </g>
 </g>
</svg>