<svg width="600" height="1200" viewBox="0 0 600 1200" xmlns="http://www.w3.org/2000/svg">

  <!-- НОВЫЙ ЛОГОТИП (отцентрирован примерно как старый) -->
  <g transform="translate(140, 40) scale(1.5)">
    
    <!-- Квадрат -->
    <rect x="0" y="0" width="52" height="52" rx="12" fill="#1a1a2e"/>

    <!-- Мопед -->
    <g transform="translate(8,10) scale(1.5)">
      <path fill="#ffffff" d="M19 7c0-1.1-.9-2-2-2h-3v2h3v2.65L13.52 14H10V9H6c-2.21 0-4 1.79-4 4v3h2c0 1.66 1.34 3 3 3s3-1.34 3-3h4.48L19 10.35V7z"/>
      <path fill="#ffffff" d="M5 6h5v2H5zm14 7c-1.66 0-3 1.34-3 3s1.34 3 3 3 3-1.34 3-3-1.34-3-3-3z"/>
    </g>

    <!-- Текст -->
    <text x="66" y="34"
      font-family="-apple-system, BlinkMacSystemFont, 'Segoe UI', Arial, sans-serif"
      font-size="20">
      <tspan font-weight="600" fill="#111">Courier</tspan><tspan font-weight="800" fill="#2bbfa7">Hub</tspan>
    </text>

  </g>

</svg>
