<svg width="600" height="1200" xmlns="http://www.w3.org/2000/svg" fill="none">

 <g>
  <title>Layer 1</title>
  <g id="svg_5">
   <path id="svg_1" fill-rule="evenodd" clip-rule="evenodd" d="m183.23088,69.49305l0,5.25043l0.05745,0l0.00039,0.03569l207.02448,-0.03569l0.15405,0c0.01378,0 0.0263,0 0.04008,0l0.05636,0c0.00125,0 0.00376,-0.00013 0.00501,-0.00013c2.08654,-0.00864 4.11047,-0.28079 6.04046,-0.7849c3.62452,-0.8876 6.03795,-2.32889 7.38181,-3.33308c6.5001,-4.3726 10.77839,-11.80701 10.77839,-20.23772l0,-21.84737l-207.23162,0c-13.42291,0 -24.30684,10.90277 -24.30684,24.35585l0,16.59692z" fill="#E42313"/>
   <path id="svg_2" fill-rule="evenodd" clip-rule="evenodd" d="m183.23088,74.74347l0,-21.84734c0,-13.45308 10.88393,-24.35585 24.30684,-24.35585l207.23162,0l0,21.84737c0,13.44481 -10.87984,24.35583 -24.3021,24.35583l-207.23636,0z" fill="#00A0A0"/>
   <path id="svg_3" fill-rule="evenodd" clip-rule="evenodd" d="m183.23088,69.49305l222.06636,0c0,0 -4.44737,4.97001 -14.73355,5.25043l-207.27496,0.03569l-0.05784,-5.28612z" fill="#E42313"/>
   <path id="svg_4" fill-rule="evenodd" clip-rule="evenodd" d="m285.15402,57.53412c-0.17083,0.01778 -0.34166,0.03544 -0.51249,0.05185c-2.74808,0.0913 -3.57029,-0.64325 -3.62014,-3.35625c-0.0243,-1.30816 -0.02029,-2.61857 -0.01628,-3.92886c0.00351,-1.14322 0.00689,-2.28631 -0.00839,-3.42752c-0.01265,-0.76736 0.22293,-1.08047 1.03688,-1.05592c1.45557,0.04158 2.92241,0.04972 4.37673,-0.04158c1.40184,-0.08191 2.13689,-0.76674 2.2322,-1.85484c0.1156,-1.26207 -0.64913,-2.1523 -2.12048,-2.29344c-0.80318,-0.08128 -1.61839,-0.07214 -2.43121,-0.063c-0.2575,0.00288 -0.51487,0.00576 -0.7715,0.00576c-2.07076,-0.00814 -2.07076,-0.00827 -2.36546,-1.95782l-0.00701,-0.0464c-0.14015,-0.94759 -0.44649,-1.85548 -1.56228,-2.03694c-1.83881,-0.30494 -2.94646,0.51979 -2.96287,2.38346c-0.04546,5.40196 -0.07064,10.81157 0.02843,16.21353c0.04609,2.47354 1.30653,4.34605 3.70355,5.24579c2.34342,0.85679 4.75246,0.84802 7.13696,0.14804c1.31467,-0.39627 1.9221,-1.36903 1.68602,-2.47417c-0.24385,-1.11328 -1.13983,-1.69867 -2.52464,-1.6249c-0.43246,0.02355 -0.86518,0.06838 -1.29802,0.11322zm-22.49447,4.44737c2.03707,-0.3875 3.80588,-1.30227 5.48425,-2.70474c0.39664,2.06964 1.2642,2.91891 2.68257,2.78728c1.30966,-0.11535 2.04146,-1.15424 2.04521,-3.01033c0.00288,-0.70725 0.01065,-1.41499 0.01829,-2.12286l0,-0.00013c0.0243,-2.2466 0.04859,-4.49321 -0.08016,-6.72541c-0.24372,-4.28055 -2.41343,-7.29088 -6.48444,-8.7998c-2.52151,-0.93181 -5.14084,-1.09689 -7.79874,-0.66779c-6.64175,1.04715 -10.6415,6.97702 -9.02612,13.36828c1.40059,5.55001 7.1873,8.99756 13.15913,7.87551zm-1.98923,-17.08699c0.21654,-0.01553 0.43334,-0.03119 0.64988,-0.0501c0.27027,0.04095 0.54117,0.07464 0.8112,0.10833c0.54719,0.06813 1.09074,0.13576 1.61926,0.26276c2.7854,0.69234 4.31424,2.45776 4.66153,5.28599c0.31448,2.61469 -0.95485,5.08886 -3.29376,6.30935c-2.1533,1.12956 -4.43923,1.27835 -6.74908,0.62684c-3.09926,-0.88208 -4.7859,-3.33171 -4.62434,-6.57261c0.14027,-2.91966 2.26063,-5.2369 5.34348,-5.8065c0.52001,-0.08767 1.05029,-0.12587 1.58182,-0.16407zm-38.11149,12.50999l0.55382,-1.08047c0.48707,-1.24203 0.97026,-2.48381 1.45294,-3.72459l0.00013,-0.00013l0,-0.00013l0,-0.00013l0.00013,0l0,-0.00013c0.75471,-1.93963 1.50842,-3.87664 2.27441,-5.80813c0.26013,-0.65965 0.57073,-1.31931 0.98754,-1.88064c1.20671,-1.64945 3.52107,-1.66585 4.75684,-0.04095c0.44273,0.58526 0.76912,1.27835 1.04127,1.97069c0.73943,1.85159 1.46309,3.70881 2.18711,5.56666c0.51437,1.32006 1.02887,2.64062 1.54938,3.95967c0.09205,0.23546 0.21943,0.45488 0.39176,0.75146l0,0.00013l0.00013,0.00013l0.00013,0.00025l0.00013,0.00013l0,0.00025c0.09819,0.16895 0.21078,0.36283 0.33966,0.59904c0.11247,-0.28756 0.21291,-0.53166 0.30246,-0.74908c0.15693,-0.38111 0.28029,-0.68069 0.3751,-0.99042c0.82598,-2.64726 1.64707,-5.29439 2.46828,-7.94164l0.00301,-0.00952c0.54643,-1.76179 1.09299,-3.5237 1.64093,-5.28549l0.27716,-0.80832c0.51212,-1.11328 1.70681,-1.65762 2.83024,-1.31104c1.1992,0.37109 1.93037,1.50892 1.60774,2.74632c-0.32663,1.26458 -0.7214,2.51425 -1.11516,3.76091l0,0l-0.00013,0.0005c-0.10934,0.34617 -0.21867,0.69222 -0.32638,1.03826c-1.05016,3.38957 -2.10345,6.78678 -3.16614,10.17647c-0.72691,2.32613 -2.3845,3.67875 -4.6167,3.7941c-2.33452,0.12349 -4.23208,-1.10514 -5.15724,-3.38143c-0.62909,-1.55138 -1.24166,-3.11366 -1.85472,-4.67694l-0.00038,-0.00088c-0.30922,-0.78865 -0.61857,-1.57756 -0.9303,-2.36546l-0.25199,-0.28856l-0.48431,1.03075c-0.28568,0.73154 -0.56935,1.46409 -0.8529,2.19663l-0.00013,0.00013c-0.49972,1.29075 -0.99931,2.58138 -1.51055,3.86549c-0.97113,2.45726 -2.81445,3.72735 -5.21147,3.62027c-2.31874,-0.09957 -3.93024,-1.45231 -4.707,-3.95103l-0.064,-0.20565c-1.43741,-4.61519 -2.87507,-9.23164 -4.29695,-13.84684c-0.1528,-0.50335 -0.28405,-1.04715 -0.24748,-1.55877c0.08654,-1.09688 1.0211,-1.95429 2.12362,-2.05323c1.11266,-0.09894 2.09581,0.55257 2.48482,1.76467c0.59403,1.84921 1.16714,3.69879 1.74025,5.54825l0.00013,0.00013l0,0.00013l0,0.00013l0.00013,0.00025l0,0.00013c0.26764,0.86355 0.53529,1.7271 0.80493,2.59065c0.21792,0.70199 0.43472,1.4041 0.65139,2.10571l0,0.00013c0.39176,1.26858 0.78314,2.53591 1.17991,3.79949l0.42557,1.03901l0.34291,0.03269zm102.12216,4.65076c-4.47993,-0.0908 -8.25851,-1.5991 -10.49784,-5.70694c-3.62828,-6.66341 0.62872,-14.54707 8.36496,-15.6194c3.47549,-0.48646 6.75309,0.03331 9.675,2.07026c3.50053,2.449 5.11116,6.70487 4.06287,11.00934c-1.11591,4.5691 -4.26577,7.05091 -8.74194,8.03244c-0.44962,0.09894 -0.90801,0.17334 -1.37141,0.20665c-0.34317,0.02292 -0.68883,0.01753 -1.03701,0.01227c-0.15154,-0.00238 -0.30309,-0.00463 -0.45463,-0.00463zm0.83787,-4.3195l0,0c0.42457,-0.0496 0.91427,-0.10671 1.3927,-0.21617c3.02586,-0.67606 5.04728,-3.07521 5.10865,-6.0119c0.06262,-3.05129 -1.78095,-5.61613 -4.88948,-6.23483c-1.58307,-0.32137 -3.36778,-0.33778 -4.92955,0.04972c-3.92135,0.95648 -5.79874,5.03087 -4.13677,8.63411c1.30503,2.84526 3.82241,3.71157 6.93845,3.84395c0.15405,-0.02267 0.32814,-0.04296 0.5135,-0.06463l0.00125,-0.00013l0,0l0.00125,-0.00013l0,0zm-23.57319,-17.08874c0.55595,0.0278 1.05993,0.04985 1.52646,0.07026c1.18793,0.05198 2.13301,0.09331 3.07383,0.19363c0.62321,0.05799 1.37128,0.17334 1.79711,0.55257c0.4922,0.43722 0.98817,1.22926 0.93807,1.82278c-0.04884,0.60229 -0.6688,1.28649 -1.22237,1.65759c-0.39276,0.26802 -0.99267,0.26201 -1.53861,0.25662c-0.0754,-0.00075 -0.14979,-0.00138 -0.22243,-0.00138c-0.92642,0.00614 -1.85334,-0.00426 -2.78026,-0.01478c-1.59947,-0.01803 -3.19882,-0.03607 -4.79479,0.03169c-1.65759,0.06625 -2.35218,0.66855 -2.39765,1.61613c-0.05373,1.02323 0.59929,1.6249 2.27328,1.92987c0.80481,0.14666 1.61513,0.26865 2.42558,0.39063c1.05793,0.15931 2.11585,0.31862 3.16163,0.53291c1.14484,0.2307 2.27704,0.59415 3.35625,1.04778c1.86837,0.775 3.10702,2.14403 3.26858,4.23897c0.16532,2.2178 -0.57862,4.05686 -2.44599,5.36039c-1.86825,1.29476 -4.02154,1.64945 -6.21216,1.64131c-2.12074,-0.00726 -4.2416,-0.13476 -6.36233,-0.26226c-0.47454,-0.02856 -0.94909,-0.05711 -1.42363,-0.08429c-0.48369,-0.02517 -0.98766,-0.18148 -1.43027,-0.38813c-0.93782,-0.44474 -1.36402,-1.22788 -1.18592,-2.26752c0.17747,-1.02248 0.8638,-1.58332 1.84708,-1.62427c0.68909,-0.03131 1.38293,0.00927 2.0764,0.04972c0.40917,0.0238 0.81821,0.04772 1.22613,0.05673c0.4282,0.0104 0.85641,0.02242 1.28449,0.03457c1.63767,0.04609 3.27447,0.0923 4.90638,0.03983c0.8266,-0.02455 1.70693,-0.28856 2.4381,-0.67606c1.11591,-0.58526 1.07859,-1.95379 -0.09468,-2.39164c-0.99029,-0.36208 -2.04396,-0.55771 -3.09337,-0.75258l-0.00025,-0.00013c-0.31286,-0.05811 -0.62546,-0.1161 -0.93581,-0.17847c-0.62734,-0.12399 -1.26144,-0.22581 -1.89555,-0.32776l-0.00013,0c-1.26721,-0.20364 -2.53416,-0.40716 -3.74576,-0.78677c-2.75258,-0.85691 -3.95491,-2.67143 -3.95942,-5.40134c-0.0119,-2.70487 1.33496,-4.64287 3.93037,-5.6244c0.52915,-0.19788 1.08736,-0.39577 1.64494,-0.44486c1.30177,-0.11848 2.61068,-0.18949 3.64394,-0.2456c0.34104,-0.01854 0.65201,-0.03532 0.92279,-0.05173zm73.9433,0.0923c-0.46215,-0.0238 -0.92304,-0.04747 -1.38393,-0.07627c0,0 -2.06024,-0.00063 -3.06845,0.1141c-1.24867,0.14177 -2.48732,0.31624 -3.67963,0.64513c-2.66642,0.74156 -4.02154,2.88622 -4.03407,5.52546c-0.01628,2.72941 1.24491,4.6182 4.03783,5.484c1.19732,0.36897 2.44724,0.5666 3.69842,0.76436c0.65001,0.10282 1.30002,0.20552 1.94377,0.33252c0.30935,0.062 0.62246,0.11948 0.93682,0.17697l0,0.00013c1.01822,0.18686 2.0402,0.3746 2.99706,0.72127c1.22237,0.45363 1.2637,1.8561 0.09894,2.44962c-0.74018,0.37873 -1.61939,0.63573 -2.44223,0.66028c-1.51794,0.04296 -3.03839,0.00288 -4.55633,-0.0372c-0.50974,-0.0134 -1.01822,-0.0268 -1.52796,-0.03707c-0.37823,-0.01115 -0.75647,-0.03682 -1.13595,-0.0625c-0.76148,-0.0516 -1.52295,-0.10307 -2.27316,-0.03707c-1.46283,0.12412 -2.23183,1.50955 -1.66949,2.80431c0.41706,0.96525 1.26871,1.3684 2.22306,1.42639c0.58363,0.03369 1.16601,0.07126 1.74964,0.10896l0,0c2.26314,0.14578 4.52752,0.29169 6.78064,0.21304c1.66197,-0.05861 3.36903,-0.54368 4.93456,-1.16376c1.82228,-0.71564 2.90563,-2.23408 3.18242,-4.23007c0.40579,-2.8623 -0.6976,-4.93957 -3.55314,-5.91296c-1.50041,-0.50986 -3.06845,-0.8102 -4.63774,-1.1109c-0.74018,-0.1419 -1.48162,-0.2838 -2.21554,-0.44787c-0.26802,-0.05987 -0.5398,-0.1136 -0.81283,-0.16745c-0.77776,-0.15392 -1.55802,-0.30822 -2.27441,-0.60743c-0.42958,-0.1821 -0.89298,-0.90726 -0.88046,-1.37729c0.00877,-0.47066 0.53353,-0.99806 0.95936,-1.34448c0.29683,-0.24698 0.7978,-0.32137 1.21485,-0.33778c1.66949,-0.06613 3.34022,-0.09894 5.01347,-0.10771c0.48719,0 0.97689,0.02304 1.46659,0.04596c0.7214,0.03394 1.4428,0.06776 2.16169,0.02843c1.64068,-0.08253 2.56622,-1.37729 2.03645,-2.771c-0.39201,-1.03889 -1.32632,-1.36903 -2.30572,-1.46797c-0.99067,-0.1017 -1.9876,-0.15292 -2.98453,-0.20415zm-14.99656,13.49052c0,0.52201 0.0025,1.04402 0.00626,1.56616c0.00626,1.18492 0.01378,2.36997 -0.01503,3.55476c-0.04133,1.5594 -0.84288,2.58952 -2.03269,2.74645c-1.54299,0.19776 -2.64513,-0.88271 -2.67017,-2.72127c-0.02254,-1.68752 -0.02004,-3.37517 -0.01753,-5.06294c0.0025,-1.19068 0.00376,-2.38124 -0.0025,-3.5718c-0.00501,-0.60229 -0.0501,-1.21285 -0.14904,-1.80562c-0.31812,-1.91408 -1.43027,-3.2662 -3.34398,-3.54662c-1.58307,-0.23934 -3.26884,-0.2476 -4.84314,0.01641c-2.03394,0.34592 -3.16614,1.80638 -3.41412,3.86787c-0.0789,0.66779 -0.10395,1.35212 -0.10771,2.02054c-0.00626,0.97226 -0.00501,1.94477 -0.00376,2.91765l0,0.00025c0.00125,1.79899 0.00376,3.59948 -0.03757,5.4031c-0.03757,1.50892 -0.97439,2.45776 -2.24811,2.49934c-1.3138,0.03219 -2.35081,-0.83412 -2.37585,-2.35882c-0.00501,-0.37786 -0.01127,-0.75584 -0.01628,-1.13407l0,-0.00751c-0.0526,-3.49139 -0.1052,-6.99794 0.1553,-10.47017c0.22794,-3.06832 2.1905,-5.20409 5.01848,-6.39176c3.50053,-1.46802 7.10001,-1.51717 10.62935,-0.13176c3.50805,1.37667 5.28149,4.08216 5.45557,7.81828c0.05135,1.09425 0.03757,2.19225 0.0238,3.29175l0,0.00138c-0.00501,0.49922 -0.01127,0.99881 -0.01127,1.4984z" fill="white"/>
  </g>
 </g>
</svg>