<svg width="250" height="630" xmlns="http://www.w3.org/2000/svg" fill="none">

 <g>
  <title>Layer 1</title>
  <path id="svg_1" fill="#fe502a" d="m67.29138,35.40112c-2.414,0 -3.67,-0.872 -3.67,-2.617c0,-2.035 1.449,-2.908 4.539,-2.908l3.477,0c0.193,0 0.29,0.097 0.29,0.291l0,1.648c0,2.423 -1.642,3.586 -4.636,3.586zm8.885,3.586c0.29,0 0.483,-0.194 0.483,-0.485l0,-13.86c0,-5.234 -2.414,-7.463 -8.885,-7.463c-3.477,0 -5.794,0.872 -7.533,2.035c-0.193,0.097 -0.193,0.388 -0.097,0.582l1.642,2.908c0.097,0.194 0.386,0.291 0.579,0.097c0.966,-0.775 2.511,-1.454 4.829,-1.454c3.573,0 4.732,1.066 4.732,3.489l0,0.969c0,0.194 -0.097,0.291 -0.29,0.291l-4.249,0c-5.215,0.001 -8.498,2.133 -8.498,6.785c0,4.459 3.283,6.494 7.146,6.494c2.994,0 5.022,-0.969 5.988,-2.52l0,1.551c0,0.291 0.193,0.485 0.483,0.485l3.67,0l0,0.097l0,-0.001zm22.017,0.001c0.29,0 0.483,-0.194 0.483,-0.485l0,-13.376c0,-4.555 -2.801,-7.948 -7.34,-7.948c-2.801,0 -4.636,1.163 -5.601,2.52l0,-1.551c0,-0.291 -0.193,-0.485 -0.483,-0.485l-4.153,0c-0.29,0 -0.483,0.194 -0.483,0.485l0,20.451c0,0.291 0.193,0.485 0.483,0.485l4.056,0c0.29,0 0.483,-0.194 0.483,-0.485l0,-12.309c0,-2.714 1.449,-4.652 4.056,-4.652s3.959,1.939 3.959,4.653l0,12.31c0,0.291 0.193,0.485 0.483,0.485l4.056,0l0,-0.097l0.001,-0.001zm11.783,-3.587c-2.414,0 -3.67,-0.872 -3.67,-2.617c0,-2.035 1.449,-2.908 4.539,-2.908l3.477,0c0.193,0 0.29,0.097 0.29,0.291l0,1.648c0.097,2.423 -1.545,3.586 -4.635,3.586l-0.001,0zm8.981,3.586c0.29,0 0.483,-0.194 0.483,-0.485l0,-13.86c0,-5.234 -2.414,-7.463 -8.885,-7.463c-3.477,0 -5.794,0.872 -7.533,2.035c-0.193,0.097 -0.193,0.388 -0.096,0.582l1.642,2.908c0.097,0.194 0.386,0.291 0.58,0.097c0.966,-0.775 2.511,-1.454 4.829,-1.454c3.573,0 4.732,1.066 4.732,3.489l0,0.969c0,0.194 -0.097,0.291 -0.29,0.291l-4.346,0c-5.215,0 -8.498,2.132 -8.498,6.785c0,4.459 3.284,6.494 7.147,6.494c2.994,0 5.022,-0.969 5.987,-2.52l0,1.551c0,0.291 0.193,0.485 0.483,0.485l3.766,0l0,0.097l-0.001,-0.001zm21.923,0.001c0.29,0 0.483,-0.194 0.483,-0.485l0,-13.376c0,-4.555 -2.801,-7.948 -7.34,-7.948c-2.801,0 -4.635,1.163 -5.601,2.52l0,-1.551c0,-0.291 -0.193,-0.485 -0.483,-0.485l-4.056,0c-0.29,0 -0.483,0.194 -0.483,0.485l0,20.451c0,0.291 0.193,0.485 0.483,0.485l4.056,0c0.29,0 0.483,-0.194 0.483,-0.485l0,-12.309c0,-2.714 1.449,-4.652 4.056,-4.652s3.96,1.939 3.96,4.653l0,12.31c0,0.291 0.193,0.485 0.483,0.485l3.959,0l0,-0.097l0,-0.001zm11.879,-3.587c-2.414,0 -3.67,-0.872 -3.67,-2.617c0,-2.035 1.449,-2.908 4.539,-2.908l3.477,0c0.193,0 0.29,0.097 0.29,0.291l0,1.648c0,2.423 -1.642,3.586 -4.635,3.586l-0.001,0zm8.885,3.586c0.29,0 0.483,-0.194 0.483,-0.485l0,-13.86c0,-5.234 -2.414,-7.463 -8.885,-7.463c-3.477,0 -5.794,0.872 -7.533,2.035c-0.193,0.097 -0.193,0.388 -0.097,0.582l1.642,2.908c0.096,0.194 0.386,0.291 0.579,0.097c0.966,-0.775 2.511,-1.454 4.829,-1.454c3.573,0 4.732,1.066 4.732,3.489l0,0.969c0,0.194 -0.096,0.291 -0.29,0.291l-4.345,0c-5.215,0 -8.498,2.132 -8.498,6.785c0,4.459 3.284,6.494 7.146,6.494c2.994,0 5.022,-0.969 5.987,-2.52l0,1.551c0,0.291 0.193,0.485 0.483,0.485l3.766,0l0,0.097l0.001,-0.001zm12.36,0.485c5.794,0 8.885,-3.005 8.885,-7.172c0,-3.489 -2.125,-5.816 -6.567,-6.203l-2.318,-0.194c-2.704,-0.291 -3.477,-0.969 -3.477,-2.229s1.063,-2.229 3.187,-2.229s4.249,0.872 5.505,1.745c0.193,0.097 0.483,0.097 0.579,-0.097l2.125,-2.617c0.097,-0.194 0.097,-0.485 -0.097,-0.582c-1.931,-1.551 -4.635,-2.617 -8.015,-2.617c-5.312,0 -8.209,2.617 -8.209,6.688c0,3.586 2.221,5.816 6.471,6.3l2.317,0.194c2.801,0.291 3.477,1.066 3.477,2.326c0,1.454 -1.352,2.52 -3.96,2.52c-2.221,0 -4.635,-0.969 -6.18,-2.423c-0.193,-0.194 -0.483,-0.194 -0.58,0l-2.511,2.617c-0.193,0.194 -0.193,0.485 0,0.581c2.028,1.648 5.022,3.392 9.368,3.392z"/>
  <path id="svg_2" fill="#84bd00" d="m60.53138,14.36912l15.741,0c0.29,0 0.483,-0.194 0.483,-0.485l0,-3.392c0,-0.291 -0.193,-0.485 -0.483,-0.485l-15.741,0c-0.29,0 -0.483,0.194 -0.483,0.485l0,3.489c0,0.194 0.193,0.388 0.483,0.388z"/>
 </g>
</svg>