<svg width="600" height="1200" xmlns="http://www.w3.org/2000/svg" fill="none">

 <g>
  <title>Layer 1</title>
  <path id="svg_1" fill-rule="evenodd" clip-rule="evenodd" d="m215.23088,59.90567l0,4.1922l0.04587,0l0.00031,0.0285l165.29861,-0.0285l0.123,0c0.011,0 0.021,0 0.032,0l0.045,0c0.001,0 0.003,-0.0001 0.004,-0.0001c1.666,-0.0069 3.282,-0.2242 4.823,-0.6267c2.894,-0.7087 4.821,-1.8595 5.894,-2.6613c5.19,-3.4913 8.606,-9.4273 8.606,-16.1588l0,-17.44402l-165.464,0c-10.71752,0 -19.40779,8.70531 -19.40779,19.44692l0,13.2518z" fill="#E42313"/>
  <path id="svg_2" fill-rule="evenodd" clip-rule="evenodd" d="m215.23088,64.09787l0,-17.444c0,-10.74161 8.69027,-19.44692 19.40779,-19.44692l165.464,0l0,17.44402c0,10.735 -8.687,19.4469 -19.404,19.4469l-165.46779,0z" fill="#00A0A0"/>
  <path id="svg_3" fill-rule="evenodd" clip-rule="evenodd" d="m215.23088,59.90567l177.30879,0c0,0 -3.551,3.9683 -11.764,4.1922l-165.49861,0.0285l-0.04618,-4.2207z" fill="#E42313"/>
  <path id="svg_4" fill-rule="evenodd" clip-rule="evenodd" d="m296.61137,50.35707c-0.1364,0.0142 -0.2728,0.0283 -0.4092,0.0414c-2.1942,0.0729 -2.8507,-0.5136 -2.8905,-2.6798c-0.0194,-1.0445 -0.0162,-2.0908 -0.013,-3.137c0.0028,-0.9128 0.0055,-1.8255 -0.0067,-2.7367c-0.0101,-0.6127 0.178,-0.8627 0.8279,-0.8431c1.1622,0.0332 2.3334,0.0397 3.4946,-0.0332c1.1193,-0.0654 1.7062,-0.6122 1.7823,-1.481c0.0923,-1.0077 -0.5183,-1.7185 -1.6931,-1.8312c-0.6413,-0.0649 -1.2922,-0.0576 -1.9412,-0.0503c-0.2056,0.0023 -0.4111,0.0046 -0.616,0.0046c-1.6534,-0.0065 -1.6534,-0.0066 -1.8887,-1.56322l-0.0056,-0.03705c-0.1119,-0.7566 -0.3565,-1.48151 -1.2474,-1.62639c-1.4682,-0.24348 -2.3526,0.41503 -2.3657,1.90307c-0.0363,4.31319 -0.0564,8.63249 0.0227,12.94569c0.0368,1.975 1.0432,3.4701 2.9571,4.1885c1.8711,0.6841 3.7946,0.6771 5.6985,0.1182c1.0497,-0.3164 1.5347,-1.0931 1.3462,-1.9755c-0.1947,-0.8889 -0.9101,-1.3563 -2.0158,-1.2974c-0.3453,0.0188 -0.6908,0.0546 -1.0364,0.0904zm-17.9607,3.551c1.6265,-0.3094 3.0388,-1.0398 4.3789,-2.1596c0.3167,1.6525 1.0094,2.3306 2.1419,2.2255c1.0457,-0.0921 1.63,-0.9216 1.633,-2.4036c0.0023,-0.5647 0.0085,-1.1298 0.0146,-1.695l0,-0.0001c0.0194,-1.7938 0.0388,-3.5876 -0.064,-5.3699c-0.1946,-3.4178 -1.927,-5.8214 -5.1775,-7.0262c-2.0133,-0.744 -4.1047,-0.87581 -6.2269,-0.5332c-5.3031,0.8361 -8.4967,5.5708 -7.2069,10.6739c1.1183,4.4314 5.7387,7.1841 10.5069,6.2882zm-1.5883,-13.6431c0.1729,-0.0124 0.346,-0.0249 0.5189,-0.04c0.2158,0.0327 0.4321,0.0596 0.6477,0.0865c0.4369,0.0544 0.8709,0.1084 1.2929,0.2098c2.224,0.5528 3.4447,1.9624 3.722,4.2206c0.2511,2.0877 -0.7624,4.0632 -2.6299,5.0377c-1.7193,0.9019 -3.5445,1.0207 -5.3888,0.5005c-2.4746,-0.7043 -3.8213,-2.6602 -3.6923,-5.2479c0.112,-2.3312 1.805,-4.1814 4.2665,-4.6362c0.4152,-0.07 0.8386,-0.1005 1.263,-0.131zm-30.4301,9.9886l0.4422,-0.8627c0.3889,-0.9917 0.7747,-1.9832 1.1601,-2.9739l0.0001,-0.0001l0,-0.0001l0,-0.0001l0.0001,0l0,-0.0001c0.6026,-1.5487 1.2044,-3.0953 1.816,-4.6375c0.2077,-0.5267 0.4557,-1.0534 0.7885,-1.5016c0.9635,-1.317 2.8114,-1.3301 3.7981,-0.0327c0.3535,0.4673 0.6141,1.0207 0.8314,1.5735c0.5904,1.4784 1.1682,2.9613 1.7463,4.4447c0.4107,1.054 0.8215,2.1084 1.2371,3.1616c0.0735,0.188 0.1752,0.3632 0.3128,0.6l0,0.0001l0.0001,0.0001l0.0001,0.0002l0.0001,0.0001l0,0.0002c0.0784,0.1349 0.1683,0.2897 0.2712,0.4783c0.0898,-0.2296 0.17,-0.4245 0.2415,-0.5981c0.1253,-0.3043 0.2238,-0.5435 0.2995,-0.7908c0.6595,-2.1137 1.3151,-4.2273 1.9708,-6.341l0.0024,-0.0076c0.4363,-1.4067 0.8727,-2.8135 1.3102,-4.2202l0.2213,-0.6454c0.4089,-0.8889 1.3628,-1.32353 2.2598,-1.0468c0.9575,0.2963 1.5413,1.2048 1.2837,2.1928c-0.2608,1.0097 -0.576,2.0075 -0.8904,3.0029l0,0l-0.0001,0.0004c-0.0873,0.2764 -0.1746,0.5527 -0.2606,0.829c-0.8385,2.7064 -1.6795,5.4189 -2.528,8.1254c-0.5804,1.8573 -1.9039,2.9373 -3.6862,3.0294c-1.864,0.0986 -3.3791,-0.8824 -4.1178,-2.6999c-0.5023,-1.2387 -0.9914,-2.4861 -1.4809,-3.7343l-0.0003,-0.0007c-0.2469,-0.6297 -0.4939,-1.2596 -0.7428,-1.8887l-0.2012,-0.2304l-0.3867,0.823c-0.2281,0.5841 -0.4546,1.169 -0.681,1.7539l-0.0001,0.0001c-0.399,1.0306 -0.7979,2.0611 -1.2061,3.0864c-0.7754,1.962 -2.2472,2.9761 -4.1611,2.8906c-1.8514,-0.0795 -3.1381,-1.1596 -3.7583,-3.1547l-0.0511,-0.1642c-1.1477,-3.685 -2.2956,-7.371 -3.4309,-11.056c-0.122,-0.4019 -0.2268,-0.8361 -0.1976,-1.2446c0.0691,-0.8758 0.8153,-1.5604 1.6956,-1.6394c0.8884,-0.079 1.6734,0.4412 1.984,1.409c0.4743,1.4765 0.9319,2.9533 1.3895,4.43l0.0001,0.0001l0,0.0001l0,0.0001l0.0001,0.0002l0,0.0001c0.2137,0.6895 0.4274,1.379 0.6427,2.0685c0.174,0.5605 0.3471,1.1211 0.5201,1.6813l0,0.0001c0.3128,1.0129 0.6253,2.0248 0.9421,3.0337l0.3398,0.8296l0.2738,0.0261zm81.5394,3.7134c-3.577,-0.0725 -6.594,-1.2768 -8.382,-4.5567c-2.897,-5.3204 0.502,-11.6151 6.679,-12.4713c2.775,-0.38841 5.392,0.0266 7.725,1.653c2.795,1.9554 4.081,5.3535 3.244,8.7904c-0.891,3.6482 -3.406,5.6298 -6.98,6.4135c-0.359,0.079 -0.725,0.1384 -1.095,0.165c-0.274,0.0183 -0.55,0.014 -0.828,0.0098c-0.121,-0.0019 -0.242,-0.0037 -0.363,-0.0037zm0.669,-3.4489l0,0c0.339,-0.0396 0.73,-0.0852 1.112,-0.1726c2.416,-0.5398 4.03,-2.4554 4.079,-4.8002c0.05,-2.4363 -1.422,-4.4842 -3.904,-4.9782c-1.264,-0.2566 -2.689,-0.2697 -3.936,0.0397c-3.131,0.7637 -4.63,4.0169 -3.303,6.8939c1.042,2.2718 3.052,2.9635 5.54,3.0692c0.123,-0.0181 0.262,-0.0343 0.41,-0.0516l0.001,-0.0001l0,0l0.001,-0.0001l0,0zm-18.822,-13.6445c0.4439,0.0222 0.8463,0.0398 1.2188,0.0561c0.9485,0.0415 1.7031,0.0745 2.4543,0.1546c0.4976,0.0463 1.0949,0.1384 1.4349,0.4412c0.393,0.3491 0.789,0.9815 0.749,1.4554c-0.039,0.4809 -0.534,1.0272 -0.976,1.3235c-0.3136,0.214 -0.7926,0.2092 -1.2285,0.2049c-0.0602,-0.0006 -0.1196,-0.0011 -0.1776,-0.0011c-0.7397,0.0049 -1.4798,-0.0034 -2.2199,-0.0118c-1.2771,-0.0144 -2.5541,-0.0288 -3.8284,0.0253c-1.3235,0.0529 -1.8781,0.5338 -1.9144,1.2904c-0.0429,0.817 0.4785,1.2974 1.8151,1.5409c0.6426,0.1171 1.2896,0.2145 1.9367,0.3119c0.8447,0.1272 1.6894,0.2544 2.5244,0.4255c0.9141,0.1842 1.8181,0.4744 2.6798,0.8366c1.4918,0.6188 2.4808,1.7119 2.6098,3.3846c0.132,1.7708 -0.462,3.2392 -1.953,4.28c-1.4917,1.0338 -3.211,1.317 -4.9601,1.3105c-1.6933,-0.0058 -3.3867,-0.1076 -5.08,-0.2094c-0.3789,-0.0228 -0.7578,-0.0456 -1.1367,-0.0673c-0.3862,-0.0201 -0.7886,-0.1449 -1.142,-0.3099c-0.7488,-0.3551 -1.0891,-0.9804 -0.9469,-1.8105c0.1417,-0.8164 0.6897,-1.2642 1.4748,-1.2969c0.5502,-0.025 1.1042,0.0074 1.6579,0.0397c0.3267,0.019 0.6533,0.0381 0.979,0.0453c0.3419,0.0083 0.6838,0.0179 1.0256,0.0276c1.3076,0.0368 2.6145,0.0737 3.9175,0.0318c0.66,-0.0196 1.3629,-0.2304 1.9467,-0.5398c0.891,-0.4673 0.8612,-1.56 -0.0756,-1.9096c-0.7907,-0.2891 -1.632,-0.4453 -2.4699,-0.6009l-0.0002,-0.0001c-0.2498,-0.0464 -0.4994,-0.0927 -0.7472,-0.1425c-0.5009,-0.099 -1.0072,-0.1803 -1.5135,-0.2617l-0.0001,0c-1.0118,-0.1626 -2.0234,-0.3251 -2.9908,-0.6282c-2.1978,-0.6842 -3.1578,-2.133 -3.1614,-4.3127c-0.0095,-2.1597 1.0659,-3.7071 3.1382,-4.4908c0.4225,-0.158 0.8682,-0.316 1.3134,-0.3552c1.0394,-0.0946 2.0845,-0.1513 2.9095,-0.1961c0.2723,-0.0148 0.5206,-0.0282 0.7368,-0.0413zm59.04,0.0737c-0.369,-0.019 -0.737,-0.0379 -1.105,-0.0609c0,0 -1.645,-0.0005 -2.45,0.0911c-0.997,0.1132 -1.986,0.2525 -2.938,0.5151c-2.129,0.5921 -3.211,2.3045 -3.221,4.4118c-0.013,2.1793 0.994,3.6874 3.224,4.3787c0.956,0.2946 1.954,0.4524 2.953,0.6103c0.519,0.0821 1.038,0.1641 1.552,0.2655c0.247,0.0495 0.497,0.0954 0.748,0.1413l0,0.0001c0.813,0.1492 1.629,0.2991 2.393,0.5759c0.976,0.3622 1.009,1.482 0.079,1.9559c-0.591,0.3024 -1.293,0.5076 -1.95,0.5272c-1.212,0.0343 -2.426,0.0023 -3.638,-0.0297c-0.407,-0.0107 -0.813,-0.0214 -1.22,-0.0296c-0.302,-0.0089 -0.604,-0.0294 -0.907,-0.0499c-0.608,-0.0412 -1.216,-0.0823 -1.815,-0.0296c-1.168,0.0991 -1.782,1.2053 -1.333,2.2391c0.333,0.7707 1.013,1.0926 1.775,1.1389c0.466,0.0269 0.931,0.0569 1.397,0.087l0,0c1.807,0.1164 3.615,0.2329 5.414,0.1701c1.327,-0.0468 2.69,-0.4341 3.94,-0.9292c1.455,-0.5714 2.32,-1.7838 2.541,-3.3775c0.324,-2.2854 -0.557,-3.944 -2.837,-4.7212c-1.198,-0.4071 -2.45,-0.6469 -3.703,-0.887c-0.591,-0.1133 -1.183,-0.2266 -1.769,-0.3576c-0.214,-0.0478 -0.431,-0.0907 -0.649,-0.1337c-0.621,-0.1229 -1.244,-0.2461 -1.816,-0.485c-0.343,-0.1454 -0.713,-0.7244 -0.703,-1.0997c0.007,-0.3758 0.426,-0.7969 0.766,-1.0735c0.237,-0.1972 0.637,-0.2566 0.97,-0.2697c1.333,-0.0528 2.667,-0.079 4.003,-0.086c0.389,0 0.78,0.0184 1.171,0.0367c0.576,0.0271 1.152,0.0541 1.726,0.0227c1.31,-0.0659 2.049,-1.0997 1.626,-2.2125c-0.313,-0.8295 -1.059,-1.0931 -1.841,-1.1721c-0.791,-0.0812 -1.587,-0.1221 -2.383,-0.163zm-11.974,10.7715c0,0.4168 0.002,0.8336 0.005,1.2505c0.005,0.9461 0.011,1.8923 -0.012,2.8383c-0.033,1.2451 -0.673,2.0676 -1.623,2.1929c-1.232,0.1579 -2.112,-0.7048 -2.132,-2.1728c-0.018,-1.3474 -0.016,-2.6949 -0.014,-4.0425c0.002,-0.9507 0.003,-1.9013 -0.002,-2.8519c-0.004,-0.4809 -0.04,-0.9684 -0.119,-1.4417c-0.254,-1.5283 -1.142,-2.6079 -2.67,-2.8318c-1.264,-0.1911 -2.61,-0.1977 -3.867,0.0131c-1.624,0.2762 -2.528,1.4423 -2.726,3.0883c-0.063,0.5332 -0.083,1.0796 -0.086,1.6133c-0.005,0.7763 -0.004,1.5528 -0.003,2.3296l0,0.0002c0.001,1.4364 0.003,2.874 -0.03,4.3141c-0.03,1.2048 -0.778,1.9624 -1.795,1.9956c-1.049,0.0257 -1.877,-0.666 -1.897,-1.8834c-0.004,-0.3017 -0.009,-0.6035 -0.013,-0.9055l0,-0.006c-0.042,-2.7877 -0.084,-5.5875 0.124,-8.3599c0.182,-2.4499 1.749,-4.1552 4.007,-5.1035c2.795,-1.17214 5.669,-1.21138 8.487,-0.1052c2.801,1.0992 4.217,3.2594 4.356,6.2425c0.041,0.8737 0.03,1.7504 0.019,2.6283l0,0.0011c-0.004,0.3986 -0.009,0.7975 -0.009,1.1964z" fill="white"/>
 </g>
</svg>